<svg xmlns="http://www.w3.org/2000/svg" xmlns:xlink="http://www.w3.org/1999/xlink" width="340" zoomAndPan="magnify" viewBox="0 0 255 346.49999" height="462" preserveAspectRatio="xMidYMid meet" version="1.0"><defs><clipPath id="c9ace501bb"><path d="M 0.183594 0 L 254.816406 0 L 254.816406 346 L 0.183594 346 Z M 0.183594 0 " clip-rule="nonzero"/></clipPath><clipPath id="05f63e1f19"><path d="M 0.183594 67 L 170.9375 67 L 170.9375 346 L 0.183594 346 Z M 0.183594 67 " clip-rule="nonzero"/></clipPath><clipPath id="e1cae1fd89"><path d="M 147.070312 0 L 254.167969 0 L 254.167969 107.09375 L 147.070312 107.09375 Z M 147.070312 0 " clip-rule="nonzero"/></clipPath></defs><g clip-path="url(#c9ace501bb)"><path fill="#ffffff" d="M 0.183594 0 L 254.816406 0 L 254.816406 346 L 0.183594 346 Z M 0.183594 0 " fill-opacity="1" fill-rule="nonzero"/></g><g clip-path="url(#05f63e1f19)"><path fill="#f85f00" d="M 114.453125 332.292969 L 102.523438 270.65625 C 101.632812 266.058594 99.789062 262.488281 96.839844 258.960938 L 54.375 208.152344 C 33.902344 183.660156 48.535156 155.601562 46.207031 126.035156 C 41.667969 128.996094 36.550781 132.859375 34.101562 137.222656 L 27.707031 183.054688 C 26.550781 191.320312 21.355469 196.203125 13.121094 195.941406 C 7.25 195.753906 -0.679688 190.277344 0.242188 182.398438 L 6.539062 128.554688 C 7.136719 123.433594 9.167969 119.136719 12.644531 115.695312 L 50.226562 78.523438 C 58.054688 70.777344 67.378906 66.070312 78.550781 67.761719 C 89.226562 69.378906 98.199219 73.925781 103.519531 83.671875 C 112.292969 99.738281 116.128906 118.785156 126.441406 134.226562 C 136.269531 147.859375 182.652344 160.902344 168.015625 180.804688 C 163.671875 186.714844 155.855469 187.914062 149.179688 183.746094 L 104.753906 156.007812 C 103.320312 168.304688 100.511719 181.339844 101.117188 194.128906 C 108.171875 211.050781 133.4375 240.140625 136.632812 258.238281 L 148.34375 324.664062 C 150.042969 334.285156 144.285156 342.558594 136.425781 344.882812 C 127.390625 347.5625 116.539062 343.09375 114.449219 332.289062 Z M 114.453125 332.292969 " fill-opacity="1" fill-rule="nonzero"/></g><path fill="#f85f00" d="M 34.265625 336.589844 C 29.125 345.660156 18.546875 345.910156 11.914062 342.410156 C 3.621094 338.03125 0.246094 328.546875 4.378906 319.769531 C 14.335938 298.621094 28.1875 279.664062 36.625 257.597656 C 42.480469 242.285156 40.011719 225.875 45.238281 208.488281 L 74.847656 245.796875 C 78.246094 256.679688 71.277344 271.230469 65.699219 281.082031 Z M 34.265625 336.589844 " fill-opacity="1" fill-rule="nonzero"/><path fill="#f85f00" d="M 119.867188 31.25 C 119.867188 32.273438 119.816406 33.292969 119.714844 34.308594 C 119.617188 35.324219 119.464844 36.335938 119.265625 37.335938 C 119.066406 38.339844 118.820312 39.328125 118.523438 40.308594 C 118.226562 41.285156 117.882812 42.246094 117.492188 43.191406 C 117.101562 44.132812 116.664062 45.058594 116.183594 45.957031 C 115.699219 46.859375 115.175781 47.734375 114.605469 48.585938 C 114.039062 49.433594 113.429688 50.253906 112.78125 51.042969 C 112.132812 51.832031 111.449219 52.589844 110.726562 53.3125 C 110.003906 54.035156 109.246094 54.71875 108.457031 55.367188 C 107.667969 56.015625 106.847656 56.625 105.996094 57.191406 C 105.148438 57.757812 104.269531 58.285156 103.371094 58.765625 C 102.46875 59.246094 101.546875 59.683594 100.601562 60.074219 C 99.65625 60.464844 98.695312 60.808594 97.71875 61.105469 C 96.738281 61.402344 95.75 61.652344 94.746094 61.851562 C 93.742188 62.050781 92.734375 62.199219 91.71875 62.300781 C 90.699219 62.398438 89.679688 62.449219 88.65625 62.449219 C 87.636719 62.449219 86.617188 62.398438 85.597656 62.300781 C 84.582031 62.199219 83.570312 62.050781 82.570312 61.851562 C 81.566406 61.652344 80.578125 61.402344 79.597656 61.105469 C 78.621094 60.808594 77.660156 60.464844 76.714844 60.074219 C 75.769531 59.683594 74.847656 59.246094 73.945312 58.765625 C 73.042969 58.285156 72.167969 57.757812 71.320312 57.191406 C 70.46875 56.625 69.648438 56.015625 68.859375 55.367188 C 68.070312 54.71875 67.3125 54.035156 66.589844 53.3125 C 65.867188 52.589844 65.179688 51.832031 64.53125 51.042969 C 63.882812 50.253906 63.277344 49.433594 62.707031 48.585938 C 62.140625 47.734375 61.617188 46.859375 61.132812 45.957031 C 60.652344 45.058594 60.214844 44.132812 59.824219 43.191406 C 59.433594 42.246094 59.089844 41.285156 58.792969 40.308594 C 58.496094 39.328125 58.25 38.339844 58.046875 37.335938 C 57.847656 36.335938 57.699219 35.324219 57.597656 34.308594 C 57.5 33.292969 57.449219 32.273438 57.449219 31.25 C 57.449219 30.230469 57.5 29.210938 57.597656 28.191406 C 57.699219 27.175781 57.847656 26.167969 58.046875 25.164062 C 58.25 24.164062 58.496094 23.171875 58.792969 22.195312 C 59.089844 21.21875 59.433594 20.257812 59.824219 19.3125 C 60.214844 18.367188 60.652344 17.445312 61.132812 16.542969 C 61.617188 15.644531 62.140625 14.769531 62.707031 13.917969 C 63.277344 13.070312 63.882812 12.25 64.53125 11.460938 C 65.179688 10.667969 65.867188 9.914062 66.589844 9.191406 C 67.3125 8.46875 68.070312 7.78125 68.859375 7.132812 C 69.648438 6.488281 70.46875 5.878906 71.320312 5.3125 C 72.167969 4.742188 73.042969 4.21875 73.945312 3.738281 C 74.847656 3.253906 75.769531 2.820312 76.714844 2.429688 C 77.660156 2.035156 78.621094 1.691406 79.597656 1.394531 C 80.578125 1.101562 81.566406 0.851562 82.570312 0.652344 C 83.570312 0.453125 84.582031 0.304688 85.597656 0.203125 C 86.617188 0.101562 87.636719 0.0546875 88.65625 0.0546875 C 89.679688 0.0546875 90.699219 0.101562 91.71875 0.203125 C 92.734375 0.304688 93.742188 0.453125 94.746094 0.652344 C 95.75 0.851562 96.738281 1.101562 97.71875 1.394531 C 98.695312 1.691406 99.65625 2.035156 100.601562 2.429688 C 101.546875 2.820312 102.46875 3.253906 103.371094 3.738281 C 104.269531 4.21875 105.148438 4.742188 105.996094 5.3125 C 106.847656 5.878906 107.667969 6.488281 108.457031 7.132812 C 109.246094 7.78125 110.003906 8.46875 110.726562 9.191406 C 111.449219 9.914062 112.132812 10.667969 112.78125 11.460938 C 113.429688 12.25 114.039062 13.070312 114.605469 13.917969 C 115.175781 14.769531 115.699219 15.644531 116.183594 16.542969 C 116.664062 17.445312 117.101562 18.367188 117.492188 19.3125 C 117.882812 20.257812 118.226562 21.21875 118.523438 22.195312 C 118.820312 23.171875 119.066406 24.164062 119.265625 25.164062 C 119.464844 26.167969 119.617188 27.175781 119.714844 28.191406 C 119.816406 29.210938 119.867188 30.230469 119.867188 31.25 Z M 119.867188 31.25 " fill-opacity="1" fill-rule="nonzero"/><g clip-path="url(#e1cae1fd89)"><path fill="#f85f00" d="M 200.785156 -0.0078125 C 171.113281 -0.0078125 147.0625 24.042969 147.0625 53.714844 C 147.0625 83.386719 171.113281 107.441406 200.785156 107.441406 C 230.460938 107.441406 254.511719 83.386719 254.511719 53.714844 C 254.511719 24.042969 230.460938 -0.0078125 200.785156 -0.0078125 Z M 200.785156 96.695312 C 177.050781 96.695312 157.808594 77.453125 157.808594 53.714844 C 157.808594 29.980469 177.050781 10.738281 200.785156 10.738281 C 224.523438 10.738281 243.765625 29.980469 243.765625 53.714844 C 243.765625 77.453125 224.523438 96.695312 200.785156 96.695312 Z M 227.3125 66.347656 C 226.5 68.5 224.449219 69.832031 222.277344 69.832031 C 221.648438 69.832031 221.015625 69.722656 220.386719 69.488281 L 205.871094 64.046875 C 199.617188 61.699219 195.414062 55.632812 195.414062 48.957031 L 195.414062 26.855469 C 195.414062 23.886719 197.816406 21.480469 200.785156 21.480469 C 203.757812 21.480469 206.160156 23.886719 206.160156 26.855469 L 206.160156 48.957031 C 206.160156 51.1875 207.5625 53.207031 209.644531 53.988281 L 224.164062 59.433594 C 226.941406 60.46875 228.347656 63.570312 227.3125 66.347656 Z M 227.3125 66.347656 " fill-opacity="1" fill-rule="nonzero"/></g></svg>