<svg width="68" height="24" viewBox="0 0 68 24" fill="none" xmlns="http://www.w3.org/2000/svg">
<g clip-path="url(#clip0_289_4154)">
<path d="M15.8919 12.8786C15.8643 9.96819 18.2612 8.56988 18.369 8.50329C17.0199 6.52512 14.9243 6.25323 14.1779 6.22271C12.3947 6.0396 10.6972 7.27699 9.79044 7.27699C8.88365 7.27699 7.48753 6.24768 6.00847 6.2782C4.0622 6.30594 2.26797 7.41294 1.26442 9.16083C-0.753732 12.6733 0.750208 17.8892 2.72137 20.7441C3.68621 22.1396 4.83075 23.7127 6.34022 23.6544C7.7944 23.5962 8.34179 22.7111 10.0945 22.7111C11.8473 22.7111 12.3422 23.6544 13.8765 23.6267C15.4385 23.5962 16.4282 22.2006 17.3848 20.7996C18.4851 19.1765 18.9413 17.609 18.9689 17.5257C18.933 17.5119 15.9251 16.3549 15.8919 12.8786Z" fill="#E2E2E2"/>
<path d="M13.0088 4.33045C13.8105 3.35662 14.3496 2.00548 14.2031 0.657104C13.0502 0.70427 11.6541 1.4284 10.8275 2.40222C10.0866 3.26229 9.43692 4.63841 9.61385 5.95903C10.8939 6.05891 12.2098 5.3015 13.0088 4.33045ZM26.0024 15.7389L24.6754 19.7757H22.9696L27.3128 6.94673H29.3033L33.6631 19.7757H31.8993L30.5336 15.7389H26.0024ZM30.1935 14.4432L28.9439 10.7505C28.6592 9.91259 28.4712 9.1524 28.2804 8.40885H28.2445C28.0537 9.16905 27.8464 9.94866 27.6003 10.731L26.3507 14.4405L30.1935 14.4432ZM34.9569 13.5693C34.9569 12.3902 34.921 11.4358 34.8795 10.5618H36.3779L36.4553 12.1432H36.4913C37.1741 11.0196 38.2551 10.3537 39.7535 10.3537C41.9735 10.3537 43.6405 12.2376 43.6405 15.037C43.6405 18.3496 41.6306 19.9838 39.4687 19.9838C38.2551 19.9838 37.1935 19.4511 36.6433 18.5383H36.6074V23.5434H34.9569V13.5693ZM36.6046 16.0247C36.6046 16.2744 36.6405 16.4991 36.682 16.7099C36.9861 17.8696 37.9897 18.6715 39.1867 18.6715C40.9506 18.6715 41.9762 17.226 41.9762 15.1119C41.9762 13.2641 41.0086 11.6882 39.2448 11.6882C38.1086 11.6882 37.0469 12.5067 36.7207 13.7635C36.6627 13.9716 36.6074 14.2213 36.6074 14.4488L36.6046 16.0247ZM45.3656 13.5693C45.3656 12.3902 45.3297 11.4358 45.2882 10.5618H46.7866L46.864 12.1432H46.9C47.5828 11.0196 48.6638 10.3537 50.1622 10.3537C52.3822 10.3537 54.0492 12.2376 54.0492 15.037C54.0492 18.3496 52.0394 19.9838 49.8774 19.9838C48.6638 19.9838 47.6022 19.4511 47.052 18.5383H47.0161V23.5434H45.3656V13.5693ZM47.0161 16.0247C47.0161 16.2744 47.052 16.4991 47.0935 16.7099C47.3976 17.8696 48.4011 18.6715 49.5982 18.6715C51.362 18.6715 52.3877 17.226 52.3877 15.1119C52.3877 13.2641 51.4201 11.6882 49.6563 11.6882C48.52 11.6882 47.4584 12.5067 47.1322 13.7635C47.0741 13.9716 47.0188 14.2213 47.0188 14.4488L47.0161 16.0247ZM55.7771 6.26145H57.4469V19.7729H55.7771V6.26145ZM60.8031 15.4725C60.8391 17.7365 62.2822 18.6715 63.9492 18.6715C65.1435 18.6715 65.8651 18.4634 66.4899 18.197L66.7747 19.3956C66.1886 19.6619 65.1822 19.9671 63.7225 19.9671C60.8971 19.9671 59.208 18.1027 59.208 15.3227C59.208 12.5427 60.8391 10.3537 63.5124 10.3537C66.5093 10.3537 67.3055 12.9978 67.3055 14.6929C67.3055 15.037 67.2695 15.3005 67.2474 15.4725H60.8031ZM65.6965 14.274C65.7158 13.2086 65.2597 11.5523 63.3825 11.5523C61.6933 11.5523 60.9552 13.1143 60.8225 14.274H65.6965Z" fill="#E2E2E2"/>
</g>
<defs>
<clipPath id="clip0_289_4154">
<rect width="67" height="23" fill="white" transform="translate(0.307129 0.657104)"/>
</clipPath>
</defs>
</svg>
