<svg width="91" height="23" viewBox="0 0 91 23" fill="none" xmlns="http://www.w3.org/2000/svg">
<g clip-path="url(#clip0_289_4137)">
<path d="M89.1097 19.1745C88.7167 19.1783 88.3413 19.3378 88.0654 19.6182C87.7896 19.8986 87.6358 20.277 87.6376 20.6707C87.6395 21.0644 87.797 21.4413 88.0755 21.719C88.354 21.9967 88.731 22.1526 89.124 22.1526C89.517 22.1526 89.8939 21.9967 90.1725 21.719C90.451 21.4413 90.6084 21.0644 90.6103 20.6707C90.6122 20.277 90.4584 19.8986 90.1825 19.6182C89.9067 19.3378 89.5312 19.1783 89.1383 19.1745H89.1097ZM89.1097 21.9821C88.8519 21.9864 88.5987 21.914 88.382 21.7741C88.1654 21.6343 87.9949 21.4332 87.8923 21.1963C87.7897 20.9593 87.7596 20.6973 87.8057 20.4432C87.8517 20.1891 87.972 19.9544 88.1512 19.7688C88.3304 19.5832 88.5605 19.455 88.8125 19.4004C89.0644 19.3458 89.3269 19.3673 89.5666 19.4621C89.8064 19.5569 90.0127 19.7209 90.1595 19.9332C90.3062 20.1455 90.3868 20.3966 90.3911 20.6548V20.6767C90.3984 21.0155 90.271 21.3432 90.0371 21.5878C89.8031 21.8325 89.4818 21.9741 89.1437 21.9814H89.11M83.4042 18.7677H80.1745V13.7006C80.1745 12.4923 80.1529 10.9369 78.4947 10.9369C76.8125 10.9369 76.5551 12.2534 76.5551 13.6127V18.7674H73.3254V8.34738H76.426V9.77139H76.4694C76.7796 9.23989 77.228 8.80265 77.7667 8.50624C78.3054 8.20984 78.9143 8.06536 79.5285 8.0882C82.802 8.0882 83.4055 10.2453 83.4055 13.0515L83.4042 18.7677ZM69.6812 6.92304C69.3105 6.92311 68.9481 6.81305 68.6399 6.60679C68.3316 6.40052 68.0913 6.10732 67.9494 5.76424C67.8075 5.42117 67.7703 5.04364 67.8426 4.6794C67.9148 4.31515 68.0933 3.98055 68.3553 3.71791C68.6174 3.45527 68.9513 3.27638 69.3149 3.20386C69.6785 3.13135 70.0553 3.16846 70.3978 3.31052C70.7403 3.45257 71.0331 3.69318 71.2391 4.00193C71.4451 4.31067 71.5551 4.67368 71.5551 5.04504C71.5552 5.29162 71.5067 5.53579 71.4126 5.76362C71.3184 5.99145 71.1804 6.19846 71.0064 6.37285C70.8324 6.54724 70.6258 6.68558 70.3984 6.77999C70.1711 6.87439 69.9273 6.923 69.6812 6.92304ZM71.2961 18.7677H68.063V8.34738H71.2961V18.7677ZM85.0143 0.162986H66.4401C66.0185 0.15822 65.6122 0.321327 65.3106 0.616465C65.009 0.911604 64.8367 1.31463 64.8316 1.73697V20.4223C64.8366 20.8448 65.0088 21.2481 65.3103 21.5436C65.6119 21.839 66.0183 22.0024 66.4401 21.9979H85.0143C85.437 22.0032 85.8444 21.8403 86.1472 21.5448C86.45 21.2494 86.6233 20.8457 86.6292 20.4223V1.73563C86.6232 1.31244 86.4497 0.90896 86.1469 0.613829C85.8441 0.318698 85.4367 0.156057 85.0143 0.161638M56.041 10.8624C54.4262 10.8624 53.4572 11.9426 53.4572 13.5166C53.4572 15.0906 54.4258 16.1718 56.041 16.1718C57.6562 16.1718 58.6272 15.0933 58.6272 13.5166C58.6272 11.9399 57.6579 10.8624 56.041 10.8624ZM61.6005 18.7617H58.6272V17.3798H58.5831C58.2101 17.8824 57.7262 18.292 57.1693 18.5766C56.6124 18.8612 55.9973 19.0131 55.3722 19.0205C52.269 19.0205 50.2248 16.7768 50.2248 13.6039C50.2248 10.6898 52.0338 8.01405 55.0075 8.01405C56.3441 8.01405 57.5926 8.38041 58.325 9.39592H58.3674V3.38949H61.6002L61.6005 18.7617ZM46.078 12.3417C46.0842 12.0792 46.0371 11.8181 45.9396 11.5744C45.8421 11.3307 45.6963 11.1093 45.5109 10.9237C45.3255 10.7381 45.1044 10.5921 44.8611 10.4946C44.6177 10.3971 44.3571 10.3501 44.0951 10.3565C43.5308 10.3213 42.9753 10.5097 42.5483 10.8811C42.1214 11.2524 41.8572 11.777 41.8127 12.3417H46.078ZM48.8138 16.9592C48.2771 17.6112 47.6024 18.1354 46.8386 18.494C46.0747 18.8525 45.2408 19.0364 44.3972 19.0323C41.1675 19.0323 38.5817 16.8725 38.5817 13.5281C38.5817 10.1836 41.1671 8.02483 44.3972 8.02483C47.416 8.02483 49.3091 10.1819 49.3091 13.5281V14.5426H41.8127C41.9061 15.1179 42.2038 15.6401 42.6511 16.0129C43.0984 16.3857 43.6651 16.584 44.2468 16.5712C44.7065 16.5684 45.1582 16.4504 45.5608 16.228C45.9633 16.0056 46.304 15.6858 46.5517 15.2979L48.8138 16.9592ZM16.707 8.34469H19.8086V9.76869H19.8526C20.1624 9.23697 20.6106 8.79953 21.1492 8.50308C21.6878 8.20663 22.2967 8.0623 22.9108 8.0855C26.1859 8.0855 26.7888 10.2443 26.7888 13.0488V18.763H23.5591V13.6969C23.5591 12.4876 23.5369 10.9332 21.8769 10.9332C20.1982 10.9332 19.9391 12.25 19.9391 13.609V18.7617H16.7094L16.707 8.34469ZM28.4265 3.3905H31.6563V12.58L35.3166 8.33896H39.2764L35.0374 13.163L39.1872 18.7681H35.1279L31.6993 13.6174H31.6569V18.7674H28.4272L28.4265 3.3905ZM11.6865 8.34368H14.9162V18.7637H11.6865V8.34368ZM13.3014 3.16334C13.6719 3.1634 14.0341 3.27354 14.3422 3.47983C14.6502 3.68612 14.8903 3.97929 15.0321 4.32227C15.1738 4.66525 15.2109 5.04264 15.1385 5.40671C15.0662 5.77079 14.8878 6.10521 14.6257 6.36768C14.3637 6.63014 14.0298 6.80888 13.6664 6.88127C13.303 6.95367 12.9263 6.91648 12.584 6.7744C12.2416 6.63233 11.949 6.39175 11.7432 6.08309C11.5373 5.77443 11.4274 5.41154 11.4274 5.04033C11.4274 4.79381 11.4759 4.5497 11.5701 4.32196C11.6643 4.09421 11.8023 3.88727 11.9763 3.71298C12.1503 3.53868 12.3569 3.40043 12.5843 3.30612C12.8116 3.21181 13.0553 3.16329 13.3014 3.16334ZM0.614258 3.39286H3.9762V15.6612H10.2001V18.7694H0.614258V3.39286ZM89.3455 20.758C89.4008 20.7585 89.4557 20.7477 89.5066 20.7261C89.5576 20.7046 89.6036 20.6727 89.6417 20.6326C89.6799 20.5925 89.7094 20.545 89.7285 20.493C89.7476 20.441 89.7558 20.3856 89.7526 20.3302C89.7526 20.0269 89.5699 19.882 89.1951 19.882H88.5896V21.4701H88.8173V20.7778H89.0972L89.1036 20.7863L89.538 21.4701H89.7815L89.3142 20.7623L89.3455 20.758ZM89.0821 20.5989H88.818V20.062H89.1527C89.3257 20.062 89.5228 20.0903 89.5228 20.3171C89.5228 20.578 89.3233 20.5989 89.0807 20.5989" fill="#E2E2E2"/>
</g>
<defs>
<clipPath id="clip0_289_4137">
<rect width="90" height="22" fill="white" transform="translate(0.614258 0.157104)"/>
</clipPath>
</defs>
</svg>
