<svg width="77" height="26" viewBox="0 0 77 26" fill="none" xmlns="http://www.w3.org/2000/svg">
<path fill-rule="evenodd" clip-rule="evenodd" d="M0.00407586 10.3525C0.00407586 5.0083 4.49474 0.657104 9.83746 0.657104C12.7911 0.657104 14.8928 1.81729 16.4787 3.32818L14.6115 5.19589C13.4781 4.13154 11.9411 3.30575 9.83542 3.30575C5.93387 3.30575 2.88438 6.44782 2.88438 10.3504C2.88438 14.2531 5.93387 17.3992 9.83338 17.3992C12.3631 17.3992 13.8022 16.3838 14.7256 15.4581C15.4819 14.7016 15.9772 13.6149 16.1688 12.1244H9.83746V9.48183H18.7495C18.8432 9.95488 18.8922 10.5217 18.8922 11.1355C18.8922 13.1194 18.3479 15.5804 16.5969 17.3319C14.8928 19.1058 12.7198 20.0519 9.83542 20.0519C4.49066 20.0519 0 15.7048 0 10.3566L0.00407586 10.3525ZM26.096 7.56315C22.6449 7.56315 19.8278 10.1894 19.8278 13.8045C19.8278 17.4013 22.6429 20.0458 26.096 20.0458C29.5491 20.0458 32.3601 17.3972 32.3601 13.8024C32.3601 10.1873 29.547 7.56111 26.096 7.56315ZM26.096 17.5909C24.2064 17.5909 22.5736 16.0311 22.5736 13.8065C22.5736 11.5596 24.2043 10.0222 26.096 10.0222C27.9856 10.0222 29.6163 11.5575 29.6163 13.8065C29.6163 16.029 27.9876 17.5909 26.096 17.5909ZM39.7636 7.56315C36.3126 7.56315 33.4996 10.1894 33.4996 13.8045C33.4996 17.4013 36.3126 20.0458 39.7636 20.0458C43.2147 20.0458 46.0277 17.3972 46.0277 13.8024C46.0277 10.1873 43.2168 7.56111 39.7636 7.56315ZM39.7636 17.5909C37.874 17.5909 36.2412 16.0311 36.2412 13.8065C36.2412 11.5596 37.872 10.0222 39.7636 10.0222C41.6533 10.0222 43.2861 11.5575 43.2861 13.8065C43.2861 16.029 41.6533 17.5909 39.7636 17.5909ZM56.5379 7.9424V8.95781H56.4441C55.8306 8.22174 54.6483 7.56111 53.1602 7.56111C50.0394 7.56111 47.1754 10.3056 47.1754 13.831C47.1754 17.3278 50.0373 20.0499 53.1602 20.0499C54.6483 20.0499 55.8306 19.3893 56.4441 18.6328H56.5379V19.53C56.5379 21.9176 55.2618 23.196 53.2051 23.196C51.5254 23.196 50.4858 21.989 50.0598 20.9756L47.6707 21.9686C48.3556 23.6222 50.178 25.6571 53.203 25.6571C56.4156 25.6571 59.1348 23.7629 59.1348 19.1527V7.94036L56.5379 7.9424ZM53.3946 17.5909C51.505 17.5909 49.9171 16.0045 49.9171 13.831C49.9171 11.633 51.503 10.0242 53.3946 10.0242C55.2618 10.0242 56.7275 11.6309 56.7275 13.831C56.7295 16.0045 55.2639 17.5909 53.3946 17.5909ZM61.0286 1.31977H63.7723V19.6706H61.0286V1.31977ZM71.2921 17.5909C69.8978 17.5909 68.903 16.9506 68.2691 15.7007L76.6144 12.2447L76.327 11.5351C75.8092 10.1425 74.2233 7.56315 70.9843 7.56315C67.7696 7.56315 65.0973 10.0935 65.0973 13.8065C65.0973 17.3034 67.7452 20.0479 71.2921 20.0479C74.154 20.0479 75.8092 18.3004 76.4941 17.281L74.366 15.8639C73.6546 16.9058 72.6843 17.5929 71.2921 17.5909ZM71.078 9.97527C72.1645 9.97527 73.0859 10.5197 73.3937 11.2986L67.8125 13.6169C67.7431 11.2048 69.6817 9.97527 71.078 9.97527Z" fill="#E2E2E2"/>
</svg>
