<svg width="93" height="11" viewBox="0 0 93 11" fill="none" xmlns="http://www.w3.org/2000/svg">
<g clip-path="url(#clip0_289_4139)">
<path d="M86.0383 3.50085C86.1318 3.5321 86.163 3.5321 86.1941 3.5321H91.2117C91.3364 3.5321 91.4611 3.43835 91.5234 3.3446C91.8039 3.00085 92.0532 2.62585 92.3337 2.2821C92.6453 1.8446 92.7388 1.3446 92.4584 0.844604C92.209 0.375854 91.8039 0.125854 91.2429 0.125854C88.3134 0.125854 85.415 0.125854 82.4855 0.125854C81.083 0.125854 79.8987 0.688355 79.0261 1.81335C77.4678 3.8446 75.9407 5.87585 74.4136 7.93835C74.102 8.37585 74.0396 8.8446 74.289 9.3446C74.5383 9.8446 74.9434 10.0634 75.5044 10.0634H84.3242C85.7266 10.0634 86.8486 9.4696 87.7524 8.4071C87.9705 8.1571 88.1887 7.9071 88.3445 7.6571C88.7185 7.00085 89.2172 6.6571 89.9651 6.8446C90.1521 6.87585 90.2768 6.7821 90.4014 6.62585C90.8066 6.0946 91.2117 5.56335 91.6169 5.00085C91.648 4.93835 91.7104 4.87585 91.7415 4.7821C89.56 4.7821 87.4407 4.7821 85.2903 4.7821C85.1968 4.7821 85.041 4.87585 84.9787 4.9696C84.3554 5.81335 83.7321 6.62585 83.1088 7.4696C82.8283 7.87585 82.4543 8.06335 81.9556 8.06335C81.5193 8.06335 81.0518 8.0946 80.6155 8.06335C80.4597 8.06335 80.2727 7.9696 80.2104 7.8446C80.148 7.75085 80.2104 7.50085 80.2727 7.4071C81.457 5.8446 82.6101 4.25085 83.7944 2.68835C84.0125 2.37585 84.3554 2.2196 84.7293 2.2196C85.228 2.2196 85.7266 2.18835 86.2253 2.2196C86.3499 2.2196 86.5681 2.31335 86.5993 2.4071C86.6616 2.5321 86.5993 2.7196 86.5369 2.8446C86.3811 3.0946 86.2253 3.2821 86.0383 3.50085ZM77.0938 0.157104H76.751C75.7849 0.157104 74.8188 0.157104 73.8527 0.157104C73.6345 0.157104 73.5098 0.219604 73.354 0.407104C72.2321 1.9071 71.1101 3.4071 69.9882 4.9071C69.9258 5.00085 69.8323 5.0946 69.7388 5.2196C69.7077 5.0946 69.6765 5.0321 69.6453 4.9696C69.3025 3.4696 68.9285 1.9696 68.6169 0.469604C68.5546 0.250855 68.4922 0.157104 68.2429 0.157104C67.0586 0.157104 65.8432 0.157104 64.6589 0.157104C64.4096 0.157104 64.2537 0.219604 64.0979 0.438354C61.7605 3.56335 59.4231 6.6571 57.0857 9.7821C57.0234 9.87585 56.9611 9.9696 56.8676 10.0634C56.9922 10.0634 57.0857 10.0946 57.148 10.0946H60.1088C60.2957 10.0946 60.4204 10.0321 60.5451 9.87585C61.667 8.37585 62.7578 6.9071 63.8798 5.4071C63.9421 5.31335 64.0356 5.2196 64.1291 5.0946C64.1602 5.25085 64.2226 5.37585 64.2226 5.4696C64.5654 6.9071 64.877 8.3446 65.2199 9.7821C65.2822 10.0321 65.3445 10.0946 65.5938 10.0946H69.2714C69.4584 10.0946 69.6142 10.0321 69.7388 9.87585C71.1724 7.93835 72.6372 6.0321 74.0708 4.0946C75.0993 2.81335 76.0654 1.5321 77.0938 0.157104ZM52.2863 0.188354C52.1616 0.188354 52.0993 0.188354 52.0369 0.188354C48.5776 0.188354 45.1182 0.188354 41.6589 0.188354C41.5342 0.188354 41.3472 0.282105 41.2537 0.407104C38.8852 3.5321 36.5478 6.68835 34.1792 9.81335C34.1169 9.9071 34.0857 9.9696 33.9922 10.0946H34.4285C37.5762 10.0946 40.7239 10.0634 43.9028 10.1259C44.5884 10.1259 45.0559 10.0009 45.3987 9.37585C45.648 8.93835 46.022 8.5321 46.3649 8.06335H40.9421C41.0356 7.93835 41.0667 7.8446 41.1291 7.7821C41.4719 7.31335 41.8459 6.81335 42.1887 6.3446C42.3134 6.1571 42.4692 6.0946 42.6873 6.0946H47.5491C47.7673 6.0946 47.892 6.0321 48.0166 5.87585C48.4218 5.3446 48.8269 4.81335 49.2321 4.25085C49.2632 4.18835 49.2944 4.12585 49.3567 4.00085H43.934C44.3391 3.4696 44.7131 2.9696 45.0559 2.50085C45.2117 2.2821 45.3676 2.18835 45.648 2.18835H50.4787C50.6033 2.18835 50.7592 2.1571 50.8215 2.06335C51.3201 1.4696 51.7876 0.844604 52.2863 0.188354ZM47.9854 10.0946H48.3283H53.0342C53.2836 10.0946 53.4082 10.0009 53.564 9.81335C55.9014 6.68835 58.2388 3.5946 60.5762 0.469604C60.6386 0.375854 60.7009 0.282104 60.7944 0.157104C60.6697 0.157104 60.5762 0.157104 60.4827 0.157104C58.8933 0.157104 57.3039 0.157104 55.7144 0.157104C55.4963 0.157104 55.3716 0.250855 55.247 0.407104C52.9096 3.5321 50.541 6.6571 48.2036 9.7821C48.1413 9.87585 48.0789 9.9696 47.9854 10.0946ZM16.4461 5.37585C16.976 6.0946 16.976 6.43835 16.4461 7.12585C16.1345 7.5321 15.854 7.93835 15.5424 8.31335C14.6386 9.4696 13.4543 10.0946 11.9583 10.0946C8.28084 10.1571 4.541 10.0946 0.83233 10.0946C0.77 10.0946 0.707669 10.0946 0.583008 10.0634C0.676504 9.93835 0.738834 9.8446 0.801165 9.75085C3.13856 6.62585 5.47596 3.5321 7.81336 0.407104C7.96919 0.250855 8.12501 0.157104 8.37434 0.157104H18.877C19.4692 0.157104 19.9367 0.344604 20.2172 0.875854C20.4976 1.4071 20.373 1.93835 19.999 2.4071C19.6562 2.87585 19.3134 3.3446 18.9394 3.7821C18.3784 4.50085 17.6304 5.00085 16.7578 5.25085C16.6643 5.2821 16.5708 5.3446 16.4461 5.37585ZM7.50171 8.0321C8.37434 8.0321 9.18463 8.06335 9.96377 8.00085C10.2131 7.9696 10.5247 7.75085 10.7117 7.5321C10.9611 7.31335 11.1169 7.0321 11.3039 6.75085C11.3974 6.62585 11.4597 6.4071 11.3974 6.31335C11.335 6.2196 11.148 6.12585 10.9922 6.0946C10.4312 6.06335 9.87027 6.0946 9.27813 6.06335C8.99764 6.06335 8.84181 6.1571 8.68599 6.37585C8.43667 6.7196 8.18734 7.06335 7.93802 7.4071C7.84453 7.5946 7.6887 7.7821 7.50171 8.0321ZM10.5247 4.0321H12.083C13.4543 4.0321 13.4543 4.0321 14.2334 2.93835C14.2334 2.93835 14.2646 2.9071 14.2646 2.87585C14.2957 2.7196 14.3892 2.5321 14.3269 2.43835C14.2646 2.3446 14.0776 2.2196 13.9218 2.2196C13.2985 2.18835 12.6751 2.2196 12.083 2.2196C11.9895 2.2196 11.896 2.25085 11.8337 2.31335C11.3974 2.8446 10.9922 3.4071 10.5247 4.0321ZM24.4556 10.1571C22.9909 10.1571 21.4326 10.0946 19.9678 10.0946C19.3757 10.0946 18.9082 9.9071 18.6277 9.37585C18.3472 8.81335 18.4719 8.31335 18.8459 7.8446C20.3106 5.93835 21.7443 4.00085 23.1779 2.06335C24.144 0.813354 25.4218 0.157104 27.0112 0.157104H35.4882C36.0803 0.157104 36.5478 0.344604 36.7971 0.875854C37.0464 1.4071 36.9529 1.9071 36.5789 2.37585C35.1142 4.31335 33.6806 6.25085 32.2158 8.18835C31.2808 9.4071 30.0342 10.0634 28.5071 10.0634C27.1047 10.0946 25.8269 10.1571 24.4556 10.1571ZM25.6399 8.06335H26.3256C26.7307 8.06335 27.0735 7.9071 27.354 7.56335C28.5383 6.00085 29.6914 4.43835 30.8757 2.87585C30.9692 2.75085 31.0004 2.5321 30.9692 2.43835C30.9069 2.31335 30.7199 2.2196 30.564 2.2196C30.0654 2.18835 29.5979 2.2196 29.0993 2.2196C28.7253 2.2196 28.4136 2.37585 28.1955 2.6571C26.98 4.25085 25.7957 5.8446 24.6115 7.43835C24.5491 7.5321 24.518 7.75085 24.5491 7.8446C24.5803 7.93835 24.7985 8.0321 24.9231 8.0321C25.1724 8.06335 25.4218 8.06335 25.6399 8.06335Z" fill="#E2E2E2"/>
</g>
<defs>
<clipPath id="clip0_289_4139">
<rect width="92" height="10" fill="white" transform="translate(0.614258 0.157104)"/>
</clipPath>
</defs>
</svg>
