<svg width="77" height="24" viewBox="0 0 77 24" fill="none" xmlns="http://www.w3.org/2000/svg">
<g clip-path="url(#clip0_289_4149)">
<path d="M17.3696 6.29915V13.4164C17.3696 13.5318 17.324 13.6425 17.2429 13.724C17.1619 13.8056 17.0519 13.8514 16.9372 13.8514H14.7041C14.5894 13.8514 14.4795 13.8055 14.3984 13.724C14.3173 13.6424 14.2718 13.5318 14.2717 13.4164V1.83981C14.2717 1.72445 14.3173 1.6138 14.3983 1.53222C14.4794 1.45064 14.5894 1.40481 14.7041 1.40481H16.7706C16.8853 1.40481 16.9952 1.45064 17.0763 1.53222C17.1574 1.6138 17.203 1.72445 17.203 1.83981V3.47011C17.203 3.47011 17.9417 1.14454 20.134 1.14454C20.134 1.14454 22.3025 0.880818 23.1842 3.30228C23.1842 3.30228 23.923 1.14454 26.163 1.14454C26.163 1.14454 29.4942 0.945262 29.4942 4.41319L29.5195 6.32312V13.4404C29.5195 13.5558 29.474 13.6664 29.3929 13.748C29.3118 13.8296 29.2019 13.8754 29.0872 13.8754H26.8538C26.7392 13.8754 26.6292 13.8295 26.5482 13.7479C26.4671 13.6664 26.4215 13.5558 26.4215 13.4404L26.4011 5.6758C26.4646 3.91758 25.0508 4.04551 25.0508 4.04551C23.2716 4.07754 23.4428 6.32312 23.4428 6.32312V13.4404C23.4428 13.5558 23.3972 13.6664 23.3161 13.748C23.235 13.8296 23.1251 13.8754 23.0104 13.8754H20.7772C20.6626 13.8754 20.5526 13.8295 20.4716 13.7479C20.3905 13.6664 20.3449 13.5558 20.3449 13.4404V5.85149C20.3449 5.85149 20.4755 4.0294 18.8867 4.0294C18.8869 4.0294 17.3141 3.82168 17.3696 6.29915ZM74.9338 6.27786V13.395C74.9338 13.5103 74.8882 13.6209 74.8071 13.7025C74.7261 13.7841 74.6161 13.8299 74.5015 13.83L72.1789 13.8752C72.0643 13.8752 71.9543 13.8293 71.8732 13.7478C71.7922 13.6662 71.7466 13.5556 71.7465 13.4402V5.85149C71.7465 5.85149 71.8771 4.0294 70.2885 4.0294C70.2885 4.0294 68.7712 3.95421 68.7712 6.81106V13.4162C68.7712 13.5316 68.7256 13.6422 68.6446 13.7238C68.5635 13.8054 68.4535 13.8512 68.3389 13.8512H66.1056C65.9909 13.8512 65.881 13.8054 65.7999 13.7238C65.7188 13.6422 65.6732 13.5316 65.6732 13.4162V1.83981C65.6732 1.72446 65.7188 1.61385 65.7999 1.53228C65.881 1.45071 65.9909 1.40486 66.1056 1.40481H68.1721C68.2867 1.40481 68.3967 1.45064 68.4778 1.53222C68.5589 1.6138 68.6044 1.72445 68.6044 1.83981V3.47011C68.6044 3.47011 69.3432 1.14454 71.5355 1.14454C71.5355 1.14454 73.884 0.786069 74.6749 3.25721C74.6751 3.25702 74.9338 3.76682 74.9338 6.27786ZM58.8096 1.09659C55.9539 1.09659 53.6386 3.51806 53.6386 7.59379C53.6386 11.1822 55.4258 14.091 58.8096 14.091C62.0028 14.091 63.9807 11.1822 63.9807 7.59379C63.9807 3.58998 61.6656 1.09659 58.8096 1.09659ZM60.6121 7.73764C60.6121 9.27204 60.4215 10.0872 60.4215 10.0872C60.1502 11.7092 58.9799 11.7115 58.8073 11.7029C58.6211 11.7104 57.4408 11.6935 57.1966 10.0872C57.1966 10.0872 57.006 9.27204 57.006 7.73764V7.48198C57.006 5.94758 57.1966 5.13243 57.1966 5.13243C57.4408 3.52611 58.6213 3.50924 58.8073 3.51652C58.9799 3.50789 60.1502 3.51 60.4215 5.13243C60.4215 5.13243 60.6121 5.94758 60.6121 7.48198V7.73764ZM52.3424 3.454V1.79302C52.3424 1.67766 52.2968 1.56705 52.2157 1.48548C52.1346 1.40391 52.0247 1.35807 51.91 1.35801H44.5285C44.4138 1.35801 44.3039 1.40384 44.2228 1.48542C44.1417 1.567 44.0961 1.67765 44.0961 1.79302V3.44115C44.0962 3.5565 44.1418 3.66712 44.2228 3.74868C44.3039 3.83025 44.4139 3.8761 44.5285 3.87615H48.3788L43.8214 10.5277C43.8214 10.5277 43.6419 10.7974 43.6478 11.0953V13.1186C43.6478 13.1186 43.618 13.8123 44.4 13.4097C44.4 13.4097 45.789 12.5654 48.118 12.5654C48.118 12.5654 50.4181 12.5367 51.9516 13.4824C51.9516 13.4824 52.5881 13.7736 52.5881 13.1333V11.3722C52.5881 11.3722 52.6459 10.9062 52.0383 10.6152C52.0383 10.6152 50.2734 9.6401 47.9589 9.80006L52.3424 3.454ZM12.5481 11.7812L11.8491 10.7105C11.6266 10.3108 11.6426 9.86316 11.6426 9.86316V4.92452C11.7379 0.656988 7.03545 1.02467 7.03545 1.02467C2.85513 1.02467 2.23765 4.29772 2.23765 4.29772C2.06341 4.95579 2.57013 4.97171 2.57013 4.97171L4.61282 5.18019C4.61282 5.18019 4.96111 5.26036 5.08789 4.8432C5.08789 4.8432 5.35688 3.41525 6.86121 3.41525C8.49803 3.41525 8.48106 4.82862 8.48106 4.82862V6.01183C5.21352 6.12173 3.69928 7.03432 3.69928 7.03432C1.68175 8.18511 1.80872 10.4708 1.80872 10.4708C1.80872 14.1948 5.33553 14.0348 5.33553 14.0348C7.59135 14.0348 8.92582 12.3727 8.92582 12.3727C9.32292 13.0762 10.0538 13.7471 10.0538 13.7471C10.4195 14.146 10.8006 13.8112 10.8006 13.8112L12.4528 12.3888C12.8181 12.1168 12.5481 11.7812 12.5481 11.7812ZM6.43647 11.7351C5.37537 11.7351 4.98094 10.6743 5.15709 9.63166C5.33343 8.58904 6.24926 7.76967 8.48125 7.79365V8.42755C8.56037 11.1967 7.31969 11.7351 6.43647 11.7351ZM42.2241 11.7812L41.5252 10.7105C41.3027 10.3108 41.3185 9.86316 41.3185 9.86316V4.92452C41.4139 0.656988 36.7114 1.02467 36.7114 1.02467C32.5311 1.02467 31.9136 4.29772 31.9136 4.29772C31.7393 4.95579 32.2461 4.97171 32.2461 4.97171L34.2887 5.18019C34.2887 5.18019 34.637 5.26036 34.7638 4.8432C34.7638 4.8432 35.0328 3.41525 36.5371 3.41525C38.174 3.41525 38.157 4.82862 38.157 4.82862V6.01183C34.8896 6.12173 33.3752 7.03432 33.3752 7.03432C31.3577 8.18511 31.4846 10.4708 31.4846 10.4708C31.4846 14.1948 35.0115 14.0348 35.0115 14.0348C37.2673 14.0348 38.6018 12.3727 38.6018 12.3727C38.999 13.0762 39.7296 13.7471 39.7296 13.7471C40.0952 14.146 40.4765 13.8112 40.4765 13.8112L42.1286 12.3888C42.494 12.1168 42.2241 11.7812 42.2241 11.7812ZM36.1124 11.7351C35.0513 11.7351 34.6569 10.6743 34.833 9.63166C35.0094 8.58904 35.9252 7.76967 38.157 7.79365V8.42755C38.2363 11.1967 36.9958 11.7351 36.1124 11.7351Z" fill="#E2E2E2"/>
<path d="M47.8464 21.1292C47.8464 21.1292 47.6596 21.4562 47.8891 21.5293C47.8891 21.5293 48.1484 21.6311 48.4717 21.3292C48.4717 21.3292 50.8297 19.2568 50.8865 15.4838C50.8865 15.4838 50.9039 15.0125 50.7159 14.8836C50.7159 14.8836 49.9772 14.2261 47.3208 14.4262C47.3208 14.4262 45.0053 14.5835 43.7412 15.7126C43.7412 15.7126 43.6276 15.8125 43.6276 15.941C43.6276 15.941 43.6003 16.2185 44.2952 16.0983C44.2952 16.0983 46.6105 15.7694 47.9884 15.941C47.9884 15.941 48.699 16.0267 48.8978 16.27C48.8978 16.27 49.2245 16.5415 49.0539 17.4417C49.0539 17.442 48.585 19.7287 47.8464 21.1292Z" fill="#E2E2E2"/>
<path d="M47.3778 17.5094C47.3778 17.5094 47.7236 17.9601 47.1656 18.3489C47.1656 18.3489 41.2049 23.1458 31.1964 23.1458C31.1964 23.1458 20.8939 23.6571 12.2914 15.7933C12.2914 15.7933 11.9898 15.5269 12.177 15.2793C12.177 15.2793 12.3444 15.0515 12.7777 15.2993C12.7777 15.2993 20.8701 20.3726 31.4982 20.3726C31.4982 20.3726 38.8854 20.6603 46.4633 17.3997C46.4633 17.3997 47.0671 17.0849 47.3778 17.5094Z" fill="#E2E2E2"/>
</g>
<defs>
<clipPath id="clip0_289_4149">
<rect width="76" height="23" fill="white" transform="translate(0.307129 0.657104)"/>
</clipPath>
</defs>
</svg>
