<svg width="80" height="35" viewBox="0 0 80 35" fill="none" xmlns="http://www.w3.org/2000/svg">
<path d="M53.5106 22.9597C53.5063 22.964 53.502 22.964 53.502 22.9683C50.2352 25.2882 46.3677 27.7252 42.2065 30.2836L42.0422 30.379C41.9861 30.418 41.9731 30.496 42.012 30.5524C42.0509 30.6088 42.1287 30.6218 42.1849 30.5828L42.3231 30.5091C45.8535 28.6618 49.9068 26.4677 53.9859 24.2172C54.0076 24.2041 54.0292 24.1911 54.0507 24.1825C53.8261 23.8096 53.6402 23.402 53.5106 22.9597ZM74.9436 5.54961C69.7971 -0.148223 36.6754 4.97724 22.5927 8.06464L22.2643 8.13401C22.1951 8.14701 22.152 8.21208 22.1649 8.27714C22.1779 8.34651 22.2427 8.38988 22.3075 8.37683L22.6316 8.31181C34.2987 6.22606 58.5664 3.33813 63.7864 8.53297C65.3809 10.12 65.0006 12.1581 63.1511 14.569C64.145 15.2108 64.8537 16.2211 65.1735 17.483C72.3898 12.6784 77.2338 8.08634 74.9436 5.54961Z" fill="#E2E2E2"/>
<path d="M55.5943 21.4638C55.6591 23.4671 56.9252 25.1105 58.5716 25.1105C61.7649 25.1105 63.1261 21.1733 63.031 18.5455C62.9619 16.5378 61.6656 14.8987 60.0192 14.8987C57.2753 14.8944 55.4993 18.8143 55.5943 21.4638ZM53.9091 21.3554C53.7924 17.9341 56.4629 14.4347 60.3433 14.4347C62.936 14.4347 64.6342 16.1692 64.7293 18.8273C64.8546 22.4351 62.3569 25.748 58.2994 25.748C55.698 25.748 53.9998 24.0178 53.9091 21.3554ZM17.1588 20.4535C17.0206 20.5055 16.8434 20.5575 16.6187 20.6052C16.3984 20.6573 15.9922 20.7266 15.4045 20.822C14.9983 20.887 14.7174 20.9695 14.5575 21.0865C14.4063 21.1993 14.3156 21.3337 14.2896 21.5028C14.2594 21.6806 14.3155 21.8193 14.4667 21.9321C14.6223 22.0405 14.8816 22.0969 15.2489 22.0969C15.5255 22.0969 15.7934 22.0535 16.0527 21.9668C16.3162 21.8801 16.5409 21.763 16.7095 21.6155C16.8348 21.5072 16.9255 21.3684 16.9946 21.1993C17.0379 21.0865 17.094 20.8394 17.1588 20.4535ZM20.5294 18.3504C20.5164 18.6626 20.4602 18.9401 20.3781 19.4214L19.8077 22.6346C19.7602 22.9208 19.8639 23.1419 20.1275 23.298L20.1102 23.4238L16.8434 23.4195L16.8131 22.6042C16.3378 22.8904 15.7631 23.1333 15.2446 23.2764C14.7261 23.4108 14.3069 23.4671 13.6803 23.4671C12.626 23.4671 12.021 23.3587 11.6019 22.9901C11.1784 22.6129 10.971 22.3614 10.9926 21.841C11.0098 21.5419 11.1654 21.1559 11.3858 20.8871C11.6105 20.6139 11.9216 20.4361 12.2543 20.2757C12.5914 20.1152 12.989 19.9981 13.5637 19.9071C14.1427 19.8117 14.9464 19.7206 16.0224 19.6296C16.5885 19.5819 16.9342 19.4518 17.0941 19.3867C17.3188 19.3 17.4095 19.2003 17.4397 19.0181C17.5002 18.6886 17.3965 18.4978 16.9558 18.4111C15.7804 18.1769 13.5723 18.5629 12.4358 18.8447L13.0538 17.1709C14.5532 16.9497 15.9576 16.811 17.4397 16.811C19.8034 16.811 20.5553 17.4831 20.5294 18.3504ZM30.0014 23.4195L31.1335 16.9975H34.2621L33.1299 23.4195H30.0014ZM31.3064 15.5101C31.4015 14.9811 32.2311 14.5562 33.1558 14.5562C34.0848 14.5562 34.7633 14.9854 34.6725 15.5101C34.5732 16.0392 33.7478 16.4684 32.8144 16.4684C31.8897 16.4684 31.2156 16.0391 31.3064 15.5101ZM45.3704 20.4665C45.2278 20.5142 45.0464 20.5662 44.826 20.6182C44.6056 20.6703 44.1994 20.7353 43.6118 20.8307C43.2099 20.8957 42.9247 20.9781 42.7691 21.0952C42.6179 21.2036 42.5315 21.3424 42.4969 21.5072C42.4623 21.6849 42.5271 21.828 42.674 21.9364C42.8339 22.0449 43.0932 22.0969 43.4605 22.0969C43.7327 22.0969 44.0007 22.0579 44.2642 21.9755C44.5322 21.8844 44.7525 21.7717 44.9254 21.6242C45.0464 21.5158 45.1371 21.3727 45.2019 21.208C45.2451 21.0995 45.3013 20.8524 45.3704 20.4665ZM48.7409 18.359C48.728 18.6756 48.6718 18.9531 48.5854 19.4301L48.0193 22.6476C47.9718 22.9295 48.0755 23.1549 48.3391 23.311L48.3218 23.4238L45.055 23.4281L45.0291 22.6086C44.5537 22.8991 43.9747 23.1419 43.4605 23.2807C42.942 23.4195 42.5228 23.4758 41.8876 23.4758C40.8332 23.4758 40.2326 23.3717 39.8134 22.9988C39.3856 22.6172 39.1825 22.3701 39.2042 21.8497C39.2171 21.5462 39.3727 21.1603 39.5974 20.8957C39.8221 20.6182 40.1332 20.4448 40.4703 20.2843C40.8073 20.1239 41.2049 20.0068 41.7752 19.9114C42.3543 19.8204 43.1623 19.7249 44.2383 19.6339C44.8001 19.5862 45.1458 19.4605 45.3056 19.3954C45.5347 19.3087 45.6211 19.2089 45.6557 19.0225C45.7118 18.6973 45.6125 18.5065 45.176 18.4154C43.992 18.1812 41.7925 18.5672 40.6561 18.849L41.2697 17.1753C42.7734 16.9541 44.1735 16.8153 45.6556 16.8153C48.0107 16.8197 48.7626 17.4962 48.7409 18.359ZM10.5691 21.1125C9.54929 21.3164 8.97891 21.3944 7.97208 21.3944C6.47696 21.3944 5.28863 20.6486 5.35346 19.2827C5.40101 18.3721 6.47263 16.4554 9.1993 16.4554C10.0592 16.4554 10.729 16.6072 11.6321 17.1232L12.0296 14.8944C10.8024 14.4304 9.99007 14.361 8.9357 14.3697C5.35776 14.4087 1.92674 16.0392 1.49896 19.3564C1.06684 22.7257 5.16762 23.5712 6.98688 23.5625C8.03688 23.5582 9.13013 23.5148 10.15 23.4108L10.5691 21.1125ZM35.9862 16.9628L36.2109 15.6532L39.482 14.9378L39.132 16.9584H40.7351L40.4327 18.2506L38.877 18.2463L37.9307 23.4108C37.9307 23.4108 34.7806 23.3891 34.7676 23.4108L35.7096 18.2593H34.5256L34.7676 16.9584H35.9862V16.9628ZM48.7337 23.4193L50.3369 14.4606L53.4395 14.5473L51.9185 23.4149L48.7337 23.4193ZM25.8617 18.5021C25.4512 18.5021 25.0796 18.6279 24.7512 18.875C24.4228 19.1266 24.2153 19.4908 24.1332 19.9721C24.0339 20.5315 24.0943 20.9348 24.3147 21.182C24.5394 21.4291 24.8592 21.5549 25.2827 21.5549C25.5678 21.5549 25.8617 21.5028 26.0778 21.3944C26.3457 21.2513 26.5315 21.1039 26.6913 20.8654C26.8642 20.6182 26.9765 20.3407 27.037 20.0198C27.1278 19.5125 27.05 19.1353 26.8167 18.8837C26.5876 18.6322 26.2722 18.5021 25.8617 18.5021ZM20.1664 25.6352L21.6918 17.0321H24.44L24.2283 18.1292C24.466 17.7996 24.8462 17.5308 25.3734 17.314C25.9049 17.0971 26.5012 16.9367 27.1494 16.9367C27.8667 16.9367 28.3075 16.9758 28.8433 17.2532C29.3748 17.5351 29.7508 17.9427 29.9495 18.4717C30.1569 18.9921 30.2002 19.5818 30.0878 20.2192C29.902 21.2816 29.3878 22.1142 28.5408 22.7299C27.7025 23.3457 26.9463 23.5061 25.8703 23.5104C25.4901 23.5104 25.1703 23.4714 24.9067 23.4064C24.6474 23.337 24.44 23.2546 24.2845 23.1549C24.1332 23.0552 23.9733 22.9121 23.7703 22.6866L23.2603 25.6352H20.1664ZM76.9539 19.2913C76.9366 18.7753 76.6773 18.4241 76.1458 18.4241C74.8624 18.4241 73.4969 20.9478 73.2636 21.9625C75.368 21.9668 77.0057 20.7093 76.9539 19.2913ZM77.2304 23.246L77.4767 23.4151C76.8501 24.6943 75.5754 25.722 74.0803 25.722C72.8574 25.722 71.8505 24.9024 71.7987 23.3674C71.6993 20.6139 74.2704 18.0599 76.3748 18.0599C77.2779 18.0599 78.1162 18.4544 78.1508 19.4301C78.2286 21.6199 75.1649 22.2877 73.1469 22.3354C73.0821 22.5652 73.0561 22.795 73.0691 23.1419C73.1037 24.0482 73.6481 24.8114 74.7803 24.8114C75.7569 24.8114 76.7335 24.0222 77.2304 23.246Z" fill="#E2E2E2"/>
<path d="M64.6821 19.2221C64.8982 19.1917 65.2482 19.1527 65.3994 19.1527C65.6284 19.1527 65.8445 19.196 65.8574 19.4259C65.8618 19.5603 65.6198 20.5359 65.568 20.7614L65.0796 22.9208C64.8809 23.8054 64.6691 24.7291 64.479 25.4619H65.7321L66.4365 22.0406C68.5841 19.7944 69.4138 19.0616 69.9193 19.0616C70.1484 19.0616 70.3039 19.183 70.3169 19.4562C70.3299 19.8508 70.0836 20.7484 70.0014 21.0086L69.2841 23.5019C69.1199 24.0613 68.9989 24.5686 69.0119 24.9285C69.0335 25.4749 69.3619 25.7177 69.8545 25.7177C70.7706 25.7177 71.4361 24.7594 72.0151 23.8184L71.8466 23.5106C71.6133 23.8878 71.0688 24.7161 70.641 24.7161C70.507 24.7161 70.3774 24.625 70.3731 24.3995C70.3601 24.109 70.4811 23.671 70.5675 23.3805L71.3669 20.4578C71.583 19.6513 71.6824 19.1353 71.6781 18.8578C71.6565 18.3114 71.341 18.0555 70.8527 18.0555C70.0274 18.0555 68.9341 18.6627 66.6137 21.3381H66.5791L66.8729 20.0329C67.0328 19.3174 67.1884 18.5716 67.3353 18.0556C66.5315 18.3461 65.3822 18.6713 64.6734 18.8101L64.6821 19.2221Z" fill="#E2E2E2"/>
</svg>
