<svg width="92" height="20" viewBox="0 0 92 20" fill="none" xmlns="http://www.w3.org/2000/svg">
<g clip-path="url(#clip0_289_4132)">
<path d="M9.37934 1.13111H7.57797V10.0063C7.57797 13.3397 6.40978 14.3422 3.4482 14.3422C0.965549 14.3342 0 13.3724 0 12.1255C0 11.8401 0.105379 10.9193 1.0141 10.9193C1.91471 10.9193 1.97154 11.5305 1.97154 12.5249C1.97154 12.9404 2.14201 13.7554 3.20482 13.7554C4.89254 13.7554 5.64703 12.9812 5.64703 10.2428V1.13111H3.91075V0.658325H9.37934V1.13111ZM9.74448 12.2232C9.44428 12.2232 9.18467 12.3209 8.98188 12.5329C8.77097 12.7447 8.66544 12.9974 8.66544 13.2989C8.66544 13.6004 8.77097 13.8531 8.98188 14.0488C9.19278 14.2606 9.44428 14.3585 9.74448 14.3585C10.0447 14.3585 10.2962 14.2608 10.5154 14.0488C10.7263 13.8531 10.8316 13.6004 10.8316 13.2989C10.8316 12.9892 10.7263 12.7447 10.5154 12.5329C10.3045 12.321 10.0527 12.2232 9.74448 12.2232ZM21.4686 12.2232C21.1684 12.2232 20.9169 12.3209 20.706 12.5329C20.4951 12.7449 20.3975 12.9974 20.3975 13.2989C20.3975 13.6004 20.495 13.8531 20.706 14.0488C20.925 14.2606 21.1765 14.3585 21.4686 14.3585C21.7688 14.3585 22.0284 14.2608 22.2393 14.0488C22.4503 13.8531 22.5558 13.6004 22.5558 13.2989C22.5558 12.9892 22.4503 12.7447 22.2393 12.5329C22.0284 12.321 21.7688 12.2232 21.4686 12.2232ZM18.069 0.658325C22.2637 0.658325 22.9778 2.24746 22.9778 4.51322C22.9778 6.75453 21.8174 8.39258 17.6714 8.39258L16.2434 8.40074V11.7829C16.2434 12.1986 16.2921 12.4024 16.3895 12.6304C16.4949 12.8994 16.7222 13.1032 17.0628 13.2417C17.3062 13.3314 17.6796 13.3803 18.1664 13.3964V13.9997H12.4057V13.3964C12.8925 13.3803 13.2576 13.3312 13.501 13.2254C13.8256 13.0867 14.0446 12.883 14.1421 12.6141C14.2313 12.3778 14.28 12.337 14.28 11.5221V1.13096H12.7059V0.66633L18.069 0.658325ZM17.3306 7.87933C19.8621 7.87933 21.1196 6.77914 21.1196 4.62753C21.1196 2.48408 20.4217 1.17188 17.225 1.17188L16.2353 1.18804V7.88733H17.3306M39.4483 12.5818C39.3752 12.3455 39.3347 12.0519 39.3347 11.6772V1.13111H40.722V0.658325H37.3386C37.2979 0.780636 33.2655 10.854 33.2655 10.854C33.2566 10.8703 33.2437 10.8841 33.2281 10.8941C33.2125 10.904 33.1947 10.9099 33.1762 10.9111C33.1275 10.9111 33.095 10.8867 33.079 10.854C33.079 10.854 28.7949 0.780636 28.7464 0.658325H24.9897V1.12281H26.5477V11.2614C26.5477 11.2614 26.5152 12.1987 26.5152 12.2069C26.4909 12.4513 26.4097 12.6715 26.2879 12.8507C26.1582 13.0383 25.9553 13.1849 25.6875 13.2827C25.509 13.3398 25.2414 13.3804 24.9168 13.3886V13.9917H28.7383V13.3886C28.422 13.3724 28.284 13.3398 28.0973 13.2827C27.8214 13.193 27.6185 13.0544 27.4806 12.8589C27.3589 12.6795 27.2777 12.4595 27.2533 12.1987C27.2533 12.1987 27.2128 11.2614 27.2128 11.2533V2.52454H27.4318C27.4318 2.52454 32.2675 13.8694 32.3243 13.9998H32.7299L37.3141 2.65501H37.4278V11.677C37.4278 12.0682 37.387 12.3779 37.3141 12.6143C37.2248 12.8913 37.0302 13.0952 36.7462 13.2337C36.5353 13.3314 36.2188 13.3804 35.797 13.3966V13.9998H41.0222V13.3966C40.6003 13.3723 40.2757 13.3234 40.0567 13.2255C39.7323 13.0709 39.5375 12.8589 39.4483 12.5818ZM46.4746 4.22813C49.0546 4.22813 50.9694 5.99666 50.9694 9.2403C50.9694 13.4049 47.9837 14.3909 46.4178 14.3909C45.6227 14.3909 41.9472 14.0812 41.9472 9.32985C41.9392 6.08635 43.6917 4.22813 46.4746 4.22813ZM46.4423 13.8043C48.3165 13.8043 48.8926 12.6307 48.8926 9.21584C48.8926 6.84422 48.8843 4.82293 46.4423 4.82293C44.1866 4.82293 44.0244 6.77899 44.0244 9.38692C44.0244 12.7529 44.3407 13.8043 46.4423 13.8043ZM58.2637 4.37476C56.6004 4.37476 56.0244 5.36094 55.5617 6.37159C55.5617 6.37159 55.4399 6.36344 55.432 6.36344C55.4238 6.37159 55.0993 4.4563 55.0993 4.4563H51.9349V4.96169H53.6713V11.5305C53.6713 12.1824 53.6389 12.6878 53.4684 12.9649C53.2737 13.2827 52.8761 13.4051 52.2108 13.4051H51.9268V14.0081H57.3385V13.4051H57.0465C56.3407 13.4051 55.9755 13.2503 55.789 12.9404C55.6185 12.6716 55.5375 12.207 55.5375 11.5305V8.1238C55.5375 6.97469 56.4543 5.65434 57.4928 5.65434C58.5799 5.65434 58.6124 7.21916 59.7809 6.65698C60.6085 6.26559 60.4219 4.37476 58.2637 4.37476ZM79.8052 13.0218C80.146 13.0218 80.5598 12.6632 80.649 11.9869H80.9735C80.8842 13.5354 80.1297 14.1548 78.8721 14.1548C77.7525 14.1548 77.1358 13.356 77.0303 12.6958C76.3732 13.3968 75.3994 14.2771 73.8578 14.2771C72.4704 14.2771 71.3914 13.2012 71.3265 11.9787C71.1399 8.84906 75.2372 8.51505 76.9654 8.36012V6.76268C76.9654 6.18405 76.8356 5.71957 76.5841 5.36909C76.3164 5.00231 75.8376 4.82308 75.156 4.82308C74.5719 4.82308 74.1419 4.96985 73.8661 5.25494C73.6063 5.53203 73.4928 5.83357 73.4118 6.35528C73.2981 7.06423 72.9979 7.34131 72.4625 7.34131C72.2272 7.34131 72.0405 7.27609 71.8703 7.12946C71.708 6.991 71.627 6.78715 71.627 6.49375C71.627 5.86619 71.8703 5.43418 72.487 4.96169C73.1199 4.47275 74.1098 4.22828 75.4484 4.22828C76.8439 4.22828 77.8094 4.48906 78.3043 4.99431C78.8075 5.49956 78.9455 6.08635 78.9455 6.94207V10.9354L78.9779 12.1581C79.0426 12.7041 79.221 13.0218 79.8052 13.0218ZM76.9735 8.94691C75.6428 8.94691 73.2249 9.83525 73.2249 11.6119C73.2249 12.1661 73.4198 13.2744 74.7503 13.2744C75.2695 13.2744 75.9753 12.9729 76.9004 12.1255L76.941 12.0846C76.9735 12.0601 76.9735 12.0438 76.9735 12.0113V8.94691ZM90.856 12.9649C90.6208 12.6716 90.5719 12.0276 90.5719 11.5387V7.21931C90.5719 6.59175 90.4909 6.06204 90.2556 5.62187C90.0203 5.19801 89.6877 4.87215 89.2738 4.6603C88.8519 4.44844 88.3734 4.34244 87.8459 4.34244C85.9472 4.34244 85.1197 5.44278 84.7466 6.18435H84.6005L84.2678 4.4566H81.3224V4.95369H82.7991V11.5308C82.7991 12.0362 82.7585 12.4029 82.6854 12.6475C82.6044 12.9407 82.4179 13.1364 82.1419 13.2587C81.9634 13.332 81.6876 13.381 81.3307 13.3972V14.0004H86.0041V13.3972C85.5335 13.3564 85.2171 13.2343 85.0468 12.9898C84.8601 12.7289 84.7791 12.2889 84.7791 11.6368V9.1186C84.7791 8.06718 84.7708 7.04837 85.1278 6.41266C85.5173 5.72818 86.2231 5.34509 87.0101 5.34509C87.7241 5.34509 88.1055 5.5734 88.3326 6.02972C88.5843 6.54312 88.641 7.4967 88.641 8.25457V11.3761C88.641 11.8976 88.6249 12.2725 88.5924 12.517C88.5356 12.8024 88.4706 13.0387 88.2435 13.1853C88.0813 13.2995 87.8298 13.3729 87.4971 13.3972V13.9921H92V13.3886C91.424 13.3641 91.0832 13.2664 90.856 12.9649ZM69.7282 3.84505C70.2393 3.68212 70.6613 3.80427 70.7991 4.38306C70.8641 4.66015 70.8074 4.99431 70.645 5.28756C70.4909 5.58095 70.2231 5.79296 69.8012 5.92327C69.4361 6.04558 69.0466 6.04558 68.6167 5.94773C68.8196 6.3879 68.9898 7.0073 68.9898 7.73256C68.9898 10.259 67.0669 11.017 65.0142 11.3348C62.9209 11.6607 62.3855 11.9135 62.3855 12.5735C62.3855 13.0218 62.6613 13.2826 64.1136 13.2826C67.1157 13.4294 68.4545 13.2581 69.3957 14.554C69.6876 14.9696 69.8337 15.5239 69.8337 16.2167C69.8337 16.7219 69.704 17.2516 69.42 17.7652C69.1523 18.2785 68.6491 18.7268 67.927 19.0936C67.2048 19.4603 66.1988 19.656 64.9655 19.656C64.0324 19.656 63.359 19.5826 62.3368 19.2729C61.6714 19.0774 60.7952 18.5395 60.7952 17.4067C60.7952 17.0643 60.852 16.7792 61.0061 16.5347C61.1765 16.2738 61.5253 16.119 61.8174 16.1679C62.3366 16.2576 62.4907 16.7302 62.4016 17.1784C62.2962 17.6186 62.3934 18.238 62.8966 18.5475C63.578 18.9714 64.3245 19.0691 65.2414 19.0691C66.3125 19.0691 67.1725 18.8817 67.8054 18.5312C68.4869 18.1481 68.8196 17.6346 68.8196 16.999C68.8196 16.5345 68.6572 16.1759 68.3408 15.9314C68.0406 15.7114 67.6268 15.5647 67.1156 15.4996C66.6369 15.4425 65.8986 15.4019 64.8683 15.3936C63.6837 15.3693 62.7425 15.2307 62.069 14.9536C61.4605 14.7009 60.99 14.2526 60.99 13.4214C60.99 12.0441 62.2718 11.6202 63.7162 11.3268C63.8055 11.3107 63.8055 11.1884 63.6999 11.1721C62.0042 10.8134 61.2335 9.8354 61.2335 7.83056C61.2335 6.11096 62.3937 4.22844 65.0306 4.22844C66.6615 4.22844 67.5946 4.78261 68.0814 5.23093C68.2275 5.34494 68.5601 5.33678 68.7548 5.2797C68.9495 5.21447 69.0956 4.99446 69.1685 4.60337C69.2658 4.17921 69.4441 3.93474 69.7282 3.84505ZM65.079 10.797C66.2311 10.797 67.0588 10.4465 67.0588 7.79779C67.0588 5.94773 66.6125 4.74154 65.079 4.74154C63.7647 4.74154 63.1479 6.06189 63.1479 7.83041C63.14 10.3486 63.8457 10.797 65.079 10.797Z" fill="#E2E2E2"/>
</g>
<defs>
<clipPath id="clip0_289_4132">
<rect width="92" height="19" fill="white" transform="translate(0 0.657104)"/>
</clipPath>
</defs>
</svg>
