<svg width="60" height="13" viewBox="0 0 60 13" fill="none" xmlns="http://www.w3.org/2000/svg">
<path d="M6.27091 7.85415L5.77584 9.30267H5.73459C5.65207 8.97604 5.5008 8.479 5.25326 7.88255L2.59913 0.994974H0V11.9725H1.719V5.19852C1.719 4.77249 1.719 4.28965 1.70525 3.6932C1.6915 3.39497 1.66399 3.16775 1.65024 2.99734H1.69149C1.77401 3.42338 1.87027 3.7358 1.93903 3.93462L5.1295 11.9441H6.33967L9.50263 3.86361C9.57139 3.679 9.64015 3.30977 9.70891 2.99734H9.75017C9.70891 3.80681 9.68141 4.53107 9.66766 4.97131V11.9299H11.4967V0.966572H8.99381L6.27091 7.85415ZM13.2294 4.06243H15.0172V11.9299H13.2294V4.06243ZM14.1371 0.739353C13.8345 0.739353 13.587 0.852962 13.3807 1.05178C13.1744 1.2506 13.0644 1.50622 13.0644 1.81864C13.0644 2.11687 13.1744 2.37249 13.3807 2.57131C13.587 2.77012 13.8345 2.86953 14.1371 2.86953C14.4396 2.86953 14.7009 2.75592 14.8934 2.57131C15.0997 2.37249 15.2097 2.11687 15.2097 1.81864C15.2097 1.52042 15.0997 1.2648 14.8934 1.05178C14.7146 0.852962 14.4534 0.739353 14.1371 0.739353ZM21.3569 3.99142C21.0268 3.92042 20.683 3.87781 20.353 3.87781C19.5416 3.87781 18.799 4.06243 18.1801 4.43166C17.5613 4.80089 17.0662 5.31213 16.7499 5.95119C16.4199 6.60444 16.2549 7.3571 16.2549 8.22338C16.2549 8.97604 16.4199 9.64349 16.7362 10.2541C17.0525 10.8506 17.4925 11.3334 18.0839 11.6601C18.6477 11.9867 19.3078 12.1571 20.0504 12.1571C20.903 12.1571 21.6319 11.9725 22.2095 11.6317L22.2232 11.6175V9.91332L22.1545 9.97012C21.8932 10.1689 21.5906 10.3394 21.2881 10.4388C20.9718 10.5524 20.683 10.6092 20.4355 10.6092C19.7204 10.6092 19.1565 10.3962 18.7577 9.92752C18.3452 9.47308 18.1389 8.84823 18.1389 8.06716C18.1389 7.2577 18.3452 6.61864 18.7715 6.15C19.1978 5.68136 19.7616 5.43994 20.4492 5.43994C21.0268 5.43994 21.6182 5.63876 22.1545 6.03639L22.2232 6.0932V4.28965L22.2095 4.27545C21.9757 4.17604 21.7144 4.06243 21.3569 3.99142ZM27.2565 3.93462C26.8164 3.93462 26.4038 4.07663 26.0463 4.37486C25.7438 4.63048 25.5375 4.99971 25.3587 5.43994H25.3449V4.06243H23.5572V11.9299H25.3449V7.91095C25.3449 7.22929 25.4825 6.66125 25.785 6.24941C26.0876 5.82338 26.4726 5.61036 26.9402 5.61036C27.1052 5.61036 27.2702 5.65296 27.4765 5.68136C27.669 5.73817 27.8066 5.79497 27.9028 5.86598L27.9716 5.92278V4.07663L27.9303 4.06243C27.8066 3.97722 27.559 3.93462 27.2565 3.93462ZM32.1247 3.89202C30.8732 3.89202 29.8694 4.27545 29.168 5.02811C28.4529 5.78077 28.1091 6.81746 28.1091 8.12397C28.1091 9.34527 28.4666 10.3394 29.1542 11.0636C29.8418 11.7737 30.777 12.1429 31.9459 12.1429C33.1698 12.1429 34.1462 11.7595 34.8476 10.9926C35.5627 10.2257 35.9065 9.20326 35.9065 7.93935C35.9065 6.68965 35.5764 5.69557 34.9026 4.97131C34.2562 4.24705 33.3074 3.89202 32.1247 3.89202ZM33.5549 9.94172C33.2248 10.382 32.7023 10.595 32.0559 10.595C31.4096 10.595 30.887 10.382 30.5157 9.91332C30.1444 9.47308 29.9656 8.83403 29.9656 8.02456C29.9656 7.18669 30.1581 6.54764 30.5157 6.0932C30.887 5.63876 31.3958 5.41154 32.0422 5.41154C32.6748 5.41154 33.1698 5.62456 33.5274 6.0648C33.8849 6.50503 34.0775 7.14409 34.0775 7.98196C34.05 8.83403 33.8987 9.50148 33.5549 9.94172ZM39.8946 7.3287C39.3307 7.08728 38.9732 6.90267 38.8082 6.74645C38.6706 6.60444 38.6019 6.40562 38.6019 6.15C38.6019 5.93699 38.6844 5.72397 38.8907 5.58196C39.0969 5.43994 39.3307 5.36894 39.6745 5.36894C39.9771 5.36894 40.2934 5.42574 40.5959 5.51095C40.8985 5.59616 41.1735 5.72397 41.3935 5.89438L41.4623 5.95119V4.21864L41.421 4.20444C41.2148 4.11923 40.9397 4.03403 40.6097 3.96302C40.2796 3.90622 39.9771 3.87781 39.7295 3.87781C38.8769 3.87781 38.1756 4.09083 37.6255 4.55947C37.0754 4.99971 36.8141 5.59616 36.8141 6.29202C36.8141 6.66125 36.8691 6.98787 36.9929 7.2577C37.1167 7.52752 37.2954 7.78314 37.543 7.99616C37.7905 8.19497 38.1481 8.42219 38.6431 8.63521C39.0557 8.81983 39.372 8.96184 39.5645 9.07545C39.757 9.18906 39.8808 9.31687 39.9771 9.41628C40.0458 9.52989 40.0871 9.6719 40.0871 9.85651C40.0871 10.382 39.702 10.6376 38.9182 10.6376C38.6156 10.6376 38.2993 10.5808 37.928 10.453C37.5567 10.3252 37.2129 10.1405 36.9241 9.92752L36.8554 9.87071V11.6743L36.8966 11.6885C37.1579 11.8163 37.4742 11.9015 37.8593 12.0009C38.2443 12.0719 38.5881 12.1287 38.8907 12.1287C39.812 12.1287 40.5684 11.9157 41.1047 11.447C41.6548 10.9926 41.9436 10.4104 41.9436 9.6577C41.9436 9.13225 41.8061 8.66361 41.5035 8.30858C41.1047 7.96776 40.6097 7.61273 39.8946 7.3287ZM46.6605 3.89202C45.4091 3.89202 44.4052 4.27545 43.7039 5.02811C43.0025 5.78077 42.645 6.81746 42.645 8.12397C42.645 9.34527 43.0025 10.3394 43.6901 11.0636C44.3777 11.7737 45.3129 12.1429 46.4818 12.1429C47.7057 12.1429 48.6821 11.7595 49.3834 10.9926C50.0986 10.2257 50.4424 9.20326 50.4424 7.93935C50.4424 6.68965 50.1123 5.69557 49.4384 4.97131C48.7921 4.24705 47.8432 3.89202 46.6605 3.89202ZM48.077 9.94172C47.747 10.382 47.2244 10.595 46.578 10.595C45.9179 10.595 45.4091 10.382 45.0378 9.91332C44.6665 9.47308 44.4877 8.83403 44.4877 8.02456C44.4877 7.18669 44.6803 6.54764 45.0378 6.0932C45.4091 5.63876 45.9179 5.41154 46.5643 5.41154C47.1831 5.41154 47.692 5.62456 48.0495 6.0648C48.4071 6.50503 48.5996 7.14409 48.5996 7.98196C48.5996 8.83403 48.4208 9.50148 48.077 9.94172ZM60 5.58196V4.06243H58.1985V1.73344L58.1435 1.74764L56.4382 2.27308L56.397 2.28728V4.06243H53.7016V3.06835C53.7016 2.61391 53.8116 2.25888 54.0041 2.03166C54.1966 1.80444 54.4854 1.69083 54.843 1.69083C55.0905 1.69083 55.3518 1.74764 55.6406 1.87545L55.7094 1.91805V0.313318L55.6681 0.299116C55.4206 0.213909 55.0905 0.157104 54.6642 0.157104C54.1279 0.157104 53.6603 0.284915 53.234 0.497933C52.8077 0.739353 52.4914 1.06598 52.2576 1.50622C52.0238 1.93225 51.9001 2.41509 51.9001 2.96894V4.06243H50.6486V5.56776H51.9001V11.9299H53.7016V5.58196H56.397V9.62929C56.397 11.2908 57.1533 12.1287 58.666 12.1287C58.9136 12.1287 59.1749 12.0861 59.4224 12.0435C59.6837 11.9867 59.8762 11.9157 59.9862 11.8589L60 11.8447V10.3252L59.9312 10.382C59.8212 10.453 59.725 10.5098 59.5599 10.5524C59.4224 10.595 59.2986 10.6092 59.2024 10.6092C58.8448 10.6092 58.5973 10.524 58.4185 10.311C58.2535 10.1121 58.171 9.78551 58.171 9.30267V5.58196H60Z" fill="#E2E2E2"/>
</svg>
