<svg xmlns="http://www.w3.org/2000/svg" xmlns:xlink="http://www.w3.org/1999/xlink" width="2000" zoomAndPan="magnify" viewBox="0 0 1500 1499.999933" height="2000" preserveAspectRatio="xMidYMid meet" version="1.0"><defs><clipPath id="4e3d1b40a2"><path d="M 854 330.75 L 1114 330.75 L 1114 664 L 854 664 Z M 854 330.75 " clip-rule="nonzero"/></clipPath><clipPath id="02c9d4823c"><path d="M 150 518 L 484 518 L 484 981 L 150 981 Z M 150 518 " clip-rule="nonzero"/></clipPath><clipPath id="8ee3e2e9b6"><path d="M 386 330.75 L 646 330.75 L 646 664 L 386 664 Z M 386 330.75 " clip-rule="nonzero"/></clipPath></defs><path fill="#f85f00" d="M 780.375 1168.964844 L 1187.1875 1168.964844 C 1171.839844 1064.722656 1121.929688 980.066406 1056.429688 943.414062 C 1090.855469 920.089844 1113.488281 880.675781 1113.488281 835.949219 C 1113.488281 764.316406 1055.421875 706.25 983.773438 706.25 C 912.140625 706.25 854.074219 764.316406 854.074219 835.949219 C 854.074219 880.675781 876.707031 920.089844 911.132812 943.414062 C 845.632812 980.066406 795.722656 1064.722656 780.375 1168.964844 " fill-opacity="1" fill-rule="nonzero"/><path fill="#f85f00" d="M 1016.65625 647.835938 C 1016.65625 651.226562 1017.246094 654.457031 1017.550781 657.765625 C 1101.570312 673.664062 1165.390625 747.386719 1165.390625 835.949219 C 1165.390625 872.824219 1154.234375 908.160156 1134.144531 937.808594 C 1147.15625 950.589844 1159.183594 965.039062 1170.207031 980.851562 L 1349.78125 980.851562 C 1334.445312 876.621094 1284.523438 791.949219 1219.023438 755.296875 C 1253.449219 731.976562 1276.097656 692.558594 1276.097656 647.835938 C 1276.097656 576.203125 1218.015625 518.121094 1146.371094 518.121094 C 1074.734375 518.121094 1016.65625 576.203125 1016.65625 647.835938 " fill-opacity="1" fill-rule="nonzero"/><g clip-path="url(#4e3d1b40a2)"><path fill="#f85f00" d="M 931.445312 647.835938 C 931.445312 653.058594 930.855469 658.167969 930.339844 663.292969 C 941.703125 659.765625 953.449219 657.417969 965.652344 656.179688 C 965.480469 653.378906 964.765625 650.675781 964.765625 647.835938 C 964.765625 559.234375 1028.636719 485.511719 1112.691406 469.636719 C 1112.960938 466.566406 1113.488281 463.578125 1113.488281 460.421875 C 1113.488281 388.789062 1055.421875 330.71875 983.773438 330.71875 C 912.140625 330.71875 854.074219 388.789062 854.074219 460.421875 C 854.074219 477.304688 858.164062 492.996094 864.039062 507.789062 C 904.820312 541.121094 931.445312 591.179688 931.445312 647.835938 " fill-opacity="1" fill-rule="nonzero"/></g><path fill="#f85f00" d="M 312.5 1168.964844 L 719.308594 1168.964844 C 703.976562 1064.722656 654.054688 980.066406 588.550781 943.414062 C 622.980469 920.089844 645.613281 880.675781 645.613281 835.949219 C 645.613281 764.316406 587.542969 706.25 515.910156 706.25 C 444.265625 706.25 386.195312 764.316406 386.195312 835.949219 C 386.195312 880.675781 408.828125 920.089844 443.257812 943.414062 C 377.753906 980.066406 327.84375 1064.722656 312.5 1168.964844 " fill-opacity="1" fill-rule="nonzero"/><path fill="#f85f00" d="M 630.511719 696.246094 C 671.058594 729.582031 697.511719 779.480469 697.511719 835.949219 C 697.511719 872.824219 686.355469 908.171875 666.265625 937.808594 C 679.265625 950.589844 691.308594 965.039062 702.328125 980.851562 L 797.355469 980.851562 C 808.378906 965.039062 820.417969 950.589844 833.417969 937.808594 C 813.328125 908.171875 802.171875 872.824219 802.171875 835.949219 C 802.171875 779.480469 828.628906 729.582031 869.175781 696.246094 C 875.316406 681.171875 879.558594 665.125 879.558594 647.835938 C 879.558594 576.203125 821.488281 518.121094 749.84375 518.121094 C 678.210938 518.121094 620.128906 576.203125 620.128906 647.835938 C 620.128906 665.125 624.367188 681.171875 630.511719 696.246094 " fill-opacity="1" fill-rule="nonzero"/><g clip-path="url(#02c9d4823c)"><path fill="#f85f00" d="M 149.902344 980.851562 L 329.480469 980.851562 C 340.5 965.039062 352.542969 950.589844 365.542969 937.808594 C 345.453125 908.160156 334.296875 872.824219 334.296875 835.949219 C 334.296875 747.386719 398.113281 673.664062 482.132812 657.765625 C 482.441406 654.457031 483.03125 651.226562 483.03125 647.835938 C 483.03125 576.203125 424.949219 518.121094 353.316406 518.121094 C 281.671875 518.121094 223.601562 576.203125 223.601562 647.835938 C 223.601562 692.558594 246.234375 731.976562 280.664062 755.296875 C 215.160156 791.949219 165.25 876.621094 149.902344 980.851562 " fill-opacity="1" fill-rule="nonzero"/></g><g clip-path="url(#8ee3e2e9b6)"><path fill="#f85f00" d="M 534.917969 647.835938 C 534.917969 650.675781 534.207031 653.378906 534.046875 656.179688 C 546.234375 657.40625 557.980469 659.765625 569.347656 663.292969 C 568.832031 658.167969 568.242188 653.058594 568.242188 647.835938 C 568.242188 591.179688 594.867188 541.121094 635.660156 507.789062 C 641.519531 492.996094 645.613281 477.304688 645.613281 460.421875 C 645.613281 388.789062 587.542969 330.71875 515.910156 330.71875 C 444.265625 330.71875 386.195312 388.789062 386.195312 460.421875 C 386.195312 463.578125 386.722656 466.566406 386.996094 469.636719 C 471.050781 485.5 534.917969 559.234375 534.917969 647.835938 " fill-opacity="1" fill-rule="nonzero"/></g></svg>