<svg xmlns="http://www.w3.org/2000/svg" xmlns:xlink="http://www.w3.org/1999/xlink" width="2000" zoomAndPan="magnify" viewBox="0 0 1500 1499.999933" height="2000" preserveAspectRatio="xMidYMid meet" version="1.0"><path fill="#f85f00" d="M 693.289062 426.503906 C 679.238281 427.109375 673.742188 445.167969 685.179688 453.441406 L 836.753906 566.585938 C 833.3125 581.214844 839.015625 596.5 851.15625 605.367188 L 955.585938 683.3125 C 968.910156 693.203125 987.132812 693.203125 1000.382812 683.3125 L 1055.632812 642.113281 L 1055.632812 822.210938 C 1068.449219 807.078125 1084.691406 794.558594 1104.085938 786.226562 C 1120.847656 778.972656 1138.410156 775.601562 1155.527344 775.449219 C 1166.808594 775.378906 1177.910156 776.980469 1188.6875 779.703125 L 1243.714844 693.710938 L 1243.714844 666.714844 L 1263.710938 690.941406 L 1203.625 784.539062 C 1226.515625 793.308594 1247.453125 808.160156 1262.683594 828.4375 C 1265.253906 826.089844 1267.515625 823.546875 1269.414062 820.609375 L 1341.511719 708.421875 C 1350.292969 694.664062 1349.199219 676.890625 1338.871094 664.371094 L 1245.640625 551.578125 C 1238.542969 543.019531 1227.992188 538.03125 1216.804688 538.03125 L 1082.585938 538.03125 C 1074.535156 537.976562 1066.621094 540.605469 1060.101562 545.4375 L 978.054688 606.6875 L 895.953125 545.4375 C 888.925781 540.097656 880.285156 537.386719 871.433594 537.75 C 865.585938 538.03125 859.796875 539.71875 854.683594 542.65625 L 703.109375 429.5 C 700.3125 427.390625 696.816406 426.351562 693.289062 426.503906 Z M 693.289062 426.503906 " fill-opacity="1" fill-rule="evenodd"/><path fill="#f85f00" d="M 1070.558594 466.972656 C 1089.441406 510.660156 1140.15625 530.808594 1183.925781 511.925781 C 1227.539062 493.109375 1247.664062 442.398438 1228.777344 398.78125 C 1209.90625 355.097656 1159.25 334.972656 1115.5625 353.761719 C 1071.792969 372.644531 1051.742188 423.289062 1070.558594 466.972656 Z M 1070.558594 466.972656 " fill-opacity="1" fill-rule="evenodd"/><path fill="#f85f00" d="M 262.453125 1045.726562 C 217.449219 1045.726562 180.941406 1077.132812 166.582031 1109.113281 C 151.644531 1142.402344 150.335938 1177.109375 154.652344 1199.144531 C 158.980469 1221.160156 162.855469 1232.429688 170.320312 1243.039062 C 177.414062 1253.003906 190.230469 1262.21875 201.863281 1265.523438 L 485.3125 1265.523438 C 496.945312 1262.21875 509.664062 1253.003906 516.773438 1243.039062 C 524.320312 1232.429688 528.195312 1221.160156 532.511719 1199.144531 C 536.769531 1177.109375 535.503906 1142.417969 520.59375 1109.113281 C 506.25 1077.132812 469.796875 1045.726562 424.777344 1045.726562 Z M 262.453125 1045.726562 " fill-opacity="1" fill-rule="nonzero"/><path fill="#f85f00" d="M 247.898438 949.40625 C 270.730469 1002.335938 332.207031 1026.6875 385.265625 1003.867188 C 438.097656 981.035156 462.476562 919.558594 439.628906 866.710938 C 416.738281 813.722656 355.320312 789.359375 302.417969 812.191406 C 249.359375 835.027344 225.050781 896.417969 247.898438 949.40625 Z M 247.898438 949.40625 " fill-opacity="1" fill-rule="evenodd"/><path fill="#f85f00" d="M 668.851562 1045.726562 C 623.832031 1045.726562 587.3125 1077.132812 572.964844 1109.113281 C 558.054688 1142.488281 556.722656 1177.109375 561.050781 1199.144531 C 565.433594 1221.160156 569.242188 1232.429688 576.785156 1243.039062 C 583.8125 1253.003906 596.613281 1262.21875 608.25 1265.523438 L 891.695312 1265.523438 C 903.332031 1262.21875 916.074219 1253.003906 923.171875 1243.039062 C 930.703125 1232.429688 934.582031 1221.160156 938.910156 1199.144531 C 943.222656 1177.109375 941.902344 1142.488281 926.980469 1109.113281 C 912.632812 1077.132812 876.183594 1045.726562 831.191406 1045.726562 Z M 749.339844 803.621094 C 735.808594 803.773438 722.039062 806.488281 708.800781 812.179688 C 655.742188 835.011719 631.449219 896.417969 654.28125 949.335938 C 677.113281 1002.324219 738.589844 1026.675781 791.578125 1003.855469 C 844.511719 981.019531 868.863281 919.546875 846.042969 866.699219 C 828.84375 826.972656 789.960938 803.339844 749.339844 803.621094 Z M 749.339844 803.621094 " fill-opacity="1" fill-rule="nonzero"/><path fill="#f85f00" d="M 1075.238281 1045.726562 C 1030.230469 1045.726562 993.695312 1077.132812 979.363281 1109.113281 C 964.425781 1142.402344 963.121094 1177.109375 967.433594 1199.144531 C 971.761719 1221.160156 975.640625 1232.429688 983.171875 1243.039062 C 990.195312 1253.003906 1003.011719 1262.21875 1014.644531 1265.523438 L 1298.09375 1265.523438 C 1309.726562 1262.21875 1322.445312 1253.003906 1329.554688 1243.039062 C 1337.101562 1232.429688 1340.980469 1221.160156 1345.292969 1199.144531 C 1349.621094 1177.109375 1348.285156 1142.417969 1333.363281 1109.113281 C 1319.03125 1077.132812 1282.566406 1045.726562 1237.574219 1045.726562 Z M 1075.238281 1045.726562 " fill-opacity="1" fill-rule="nonzero"/><path fill="#f85f00" d="M 1060.679688 949.40625 C 1083.5 1002.335938 1144.988281 1026.6875 1198.046875 1003.867188 C 1250.878906 981.035156 1275.261719 919.558594 1252.414062 866.710938 C 1229.496094 813.722656 1168.101562 789.359375 1115.199219 812.191406 C 1062.140625 835.027344 1037.84375 896.417969 1060.679688 949.40625 Z M 1060.679688 949.40625 " fill-opacity="1" fill-rule="evenodd"/><path fill="#f85f00" d="M 383.71875 233.085938 C 373.476562 233.085938 365.214844 241.417969 365.214844 251.675781 L 365.214844 754.019531 C 365.214844 764.261719 373.476562 772.523438 383.71875 772.609375 L 1027.167969 772.609375 L 1027.167969 735.441406 L 402.308594 735.441406 L 402.308594 270.335938 L 1097.550781 270.335938 L 1097.550781 328.230469 L 1134.746094 328.230469 L 1134.746094 251.664062 C 1134.746094 241.417969 1126.382812 233.074219 1116.15625 233.074219 L 383.71875 233.074219 Z M 383.71875 233.085938 " fill-opacity="1" fill-rule="evenodd"/></svg>