<svg xmlns="http://www.w3.org/2000/svg" xmlns:xlink="http://www.w3.org/1999/xlink" width="2000" zoomAndPan="magnify" viewBox="0 0 1500 1499.999933" height="2000" preserveAspectRatio="xMidYMid meet" version="1.0"><path fill="#f85f00" d="M 1092.300781 150 L 1211.289062 150 C 1223.445312 150 1233.304688 159.863281 1233.304688 171.949219 L 1233.304688 178.757812 L 1350 178.757812 L 1314.644531 241.828125 L 1350 304.898438 L 1199.132812 304.898438 C 1187.046875 304.898438 1177.183594 295.035156 1177.183594 282.949219 L 1177.183594 276.070312 L 1131.476562 276.070312 L 1131.476562 429.644531 L 1092.304688 429.644531 L 1092.304688 150 Z M 1220.246094 1168.777344 C 1248.726562 1168.777344 1271.71875 1191.839844 1271.71875 1220.25 C 1271.71875 1248.65625 1248.726562 1271.71875 1220.246094 1271.71875 C 1202.394531 1271.71875 1186.628906 1262.550781 1177.390625 1248.65625 C 1159.121094 1253.378906 1140.089844 1255.882812 1120.429688 1255.882812 L 548.773438 1255.882812 L 548.773438 1216.636719 L 1120.433594 1216.636719 C 1137.519531 1216.636719 1154.050781 1214.414062 1169.820312 1210.109375 C 1174.542969 1186.558594 1195.3125 1168.777344 1220.246094 1168.777344 Z M 816.335938 764.863281 C 837.867188 764.863281 856.203125 778.0625 863.914062 796.746094 L 1120.433594 796.746094 C 1183.570312 796.746094 1241.015625 822.515625 1282.554688 864.125 C 1324.160156 905.730469 1350 963.175781 1350 1026.3125 C 1350 1082.578125 1329.511719 1134.253906 1295.613281 1174.332031 C 1288.667969 1162.941406 1279.222656 1153.289062 1268.039062 1146.0625 C 1294.78125 1113.347656 1310.824219 1071.601562 1310.824219 1026.3125 C 1310.824219 973.941406 1289.359375 926.359375 1254.839844 891.835938 C 1220.316406 857.386719 1172.738281 835.921875 1120.433594 835.921875 L 863.914062 835.921875 C 856.203125 854.605469 837.867188 867.804688 816.335938 867.804688 C 787.925781 867.804688 764.933594 844.742188 764.933594 816.332031 C 764.933594 787.925781 787.925781 764.863281 816.335938 764.863281 Z M 396.445312 344.90625 C 424.855469 344.90625 447.847656 367.96875 447.847656 396.375 C 447.847656 424.785156 424.855469 447.84375 396.445312 447.84375 C 375.816406 447.84375 358.105469 435.761719 349.839844 418.324219 C 309.34375 424.78125 273.015625 444.09375 245.160156 471.949219 C 210.640625 506.46875 189.175781 554.050781 189.175781 606.351562 C 189.175781 658.65625 210.640625 706.308594 245.160156 740.757812 C 279.683594 775.28125 327.265625 796.742188 379.570312 796.742188 L 730.34375 796.742188 C 728.886719 802.996094 728.121094 809.59375 728.121094 816.332031 C 728.121094 823.070312 728.886719 829.601562 730.34375 835.921875 L 379.566406 835.921875 C 316.425781 835.921875 258.984375 810.082031 217.445312 768.476562 C 175.839844 726.9375 150 669.496094 150 606.355469 C 150 543.214844 175.839844 485.773438 217.445312 444.234375 C 251.964844 409.640625 297.394531 386.027344 347.960938 378.941406 C 355.117188 359.144531 374.078125 344.90625 396.445312 344.90625 Z M 306.910156 1273.941406 C 256.480469 1229 214.945312 1178.640625 210.222656 1110.710938 C 205.636719 1044.582031 250.71875 988.179688 319.066406 988.179688 C 387.414062 988.179688 432.496094 1044.582031 427.910156 1110.710938 C 423.1875 1178.644531 381.652344 1229 331.222656 1273.941406 C 324.277344 1280.121094 313.859375 1280.121094 306.910156 1273.941406 Z M 319.066406 1042.359375 C 349.488281 1042.359375 374.21875 1067.015625 374.21875 1097.441406 C 374.21875 1127.933594 349.488281 1152.59375 319.066406 1152.59375 C 288.644531 1152.59375 263.914062 1127.933594 263.914062 1097.441406 C 263.914062 1067.015625 288.644531 1042.359375 319.066406 1042.359375 Z M 435.761719 1207.398438 C 468.058594 1222.46875 488.132812 1243.722656 488.132812 1267.269531 C 488.132812 1312.976562 412.421875 1349.996094 319.066406 1349.996094 C 225.710938 1350 150 1312.976562 150 1267.273438 C 150 1243.726562 170.140625 1222.46875 202.371094 1207.398438 C 222.308594 1242.546875 250.71875 1273.109375 282.460938 1301.378906 C 303.296875 1319.925781 334.832031 1319.925781 355.671875 1301.378906 C 387.414062 1273.105469 415.828125 1242.542969 435.761719 1207.398438 Z M 482.4375 376.789062 L 1006.796875 376.789062 L 993.320312 363.3125 C 985.679688 355.671875 985.679688 343.238281 993.320312 335.597656 C 1000.960938 327.960938 1013.394531 327.960938 1021.035156 335.597656 L 1067.988281 382.554688 C 1075.628906 390.195312 1075.628906 402.628906 1067.988281 410.269531 L 1021.035156 457.152344 C 1013.394531 464.792969 1000.960938 464.792969 993.320312 457.152344 C 985.679688 449.515625 985.679688 437.078125 993.320312 429.441406 L 1006.796875 415.964844 L 482.4375 415.964844 C 483.898438 409.714844 484.660156 403.113281 484.660156 396.375 C 484.660156 389.636719 483.894531 383.109375 482.4375 376.789062 Z M 482.4375 376.789062 " fill-opacity="1" fill-rule="evenodd"/></svg>